<svg xmlns="http://www.w3.org/2000/svg" xmlns:xlink="http://www.w3.org/1999/xlink" viewBox="0 0 719 622.47"><defs><style>.a{fill:#fff}.b,.h{fill:none;stroke-miterlimit:10}.b{stroke:#737373}.c,.d{opacity:.99}.d,.e,.j,.k,.n{fill:#00b1e2}.e{font-size:14px}.e,.j,.n{font-family:HelveticaNeue,Helvetica Neue}.f{letter-spacing:-.11em}.g{fill:#d6d6d6}.h{stroke:#ababab;stroke-dasharray:5}.i{opacity:.5;fill:url(#a)}.j{font-size:14.33px}.l{fill:#f0f0f0}.m{opacity:.8}.n{font-size:15.44px}.o{letter-spacing:-.11em}</style><linearGradient id="a" x1="547.24" x2="537.62" y1="-217.84" y2="-254.83" gradientTransform="translate(127.72 377.65) rotate(45)" gradientUnits="userSpaceOnUse"><stop offset="0"/><stop offset="1" stop-opacity="0"/></linearGradient><symbol id="b" viewBox="0 0 331 81"><rect width="330" height="80" x=".5" y=".5" class="a" rx="5" ry="5"/><rect width="330" height="80" x=".5" y=".5" class="b" rx="5" ry="5"/><g class="c"><path d="M12.91,10.08a3.66,3.66,0,0,1,2.85,1.69,12.49,12.49,0,0,1,1.59,3c.75,1.92,1.54,2.74,1.82,2.85.28-.11,1.06-.93,1.82-2.85s1.94-4,3.69-4.54a10,10,0,0,0-18.44,7,1.38,1.38,0,0,0,.43.36c.28-.11,1.06-.93,1.82-2.85C9.3,12.6,10.74,10.08,12.91,10.08Z" class="d"/><path d="M25.84,13.26a1.38,1.38,0,0,0-.43-.36c-.28.11-1.06.93-1.82,2.85-.83,2.12-2.27,4.64-4.43,4.64a3.66,3.66,0,0,1-2.85-1.69,12.5,12.5,0,0,1-1.59-3C14,13.83,13.18,13,12.91,12.9c-.28.11-1.06.93-1.82,2.85s-1.94,4-3.69,4.54a10,10,0,0,0,18.44-7Z" class="d"/></g><text class="e" transform="translate(30.83 20.56)"><tspan class="f">T</tspan><tspan x="6.48" y="0">elemetry Element</tspan></text><rect width="289.31" height="38.35" x="31.05" y="30.75" class="g"/></symbol></defs><title>diagram-objects</title><line x1="6.31" x2="77.48" y1="161.24" y2="120.15" class="h"/><polygon points="666.72 614.57 666.72 562.32 712.05 588.44 666.72 614.57" class="i"/><path d="M669.11,167.18a6.89,6.89,0,0,0-4.83-6.29L76.15,3.29A3.65,3.65,0,0,0,71.32,7V450.34a6.89,6.89,0,0,0,4.83,6.29L664.28,614.23a3.65,3.65,0,0,0,4.83-3.71Z" class="a"/><path d="M669.11,167.18a6.89,6.89,0,0,0-4.83-6.29L76.15,3.29A3.65,3.65,0,0,0,71.32,7V450.34a6.89,6.89,0,0,0,4.83,6.29L664.28,614.23a3.65,3.65,0,0,0,4.83-3.71Z" class="b"/><text class="j" transform="matrix(1, 0.27, 0, 1, 103.5, 35.75)">Display Layout</text><path d="M87.84,15.66,82.72,14.3a2.86,2.86,0,0,0-3.84,2.82V29.91a5.37,5.37,0,0,0,3.84,4.86l5.12,1.36Z" class="k"/><path d="M95.52,17.71,90.4,16.34V27.89l9,2.38V22.57A5.37,5.37,0,0,0,95.52,17.71Z" class="k"/><path d="M90.4,36.81l5.12,1.36a2.86,2.86,0,0,0,3.84-2.82V32.77l-9-2.38Z" class="k"/><path d="M277,169a3.66,3.66,0,0,1-4.83,3.71L83.32,122.46a6.88,6.88,0,0,1-4.83-6.29V49a3.66,3.66,0,0,1,4.83-3.71l188.9,50.29a6.88,6.88,0,0,1,4.83,6.29Z" class="l"/><path d="M277,462.27a3.66,3.66,0,0,1-4.83,3.71L83.32,415.7a6.88,6.88,0,0,1-4.83-6.29V134.92a3.66,3.66,0,0,1,4.83-3.71l188.9,50.29a6.88,6.88,0,0,1,4.83,6.29Z" class="l"/><path d="M658.73,565a3.66,3.66,0,0,1-4.83,3.71L288.5,471.4a6.88,6.88,0,0,1-4.83-6.29V103.58a3.66,3.66,0,0,1,4.83-3.71l365.4,97.27a6.88,6.88,0,0,1,4.83,6.29Z" class="l"/><g class="m"><path d="M585,605.89a3.66,3.66,0,0,1-4.83,3.71l-365.4-97.27A6.88,6.88,0,0,1,210,506V144.51a3.66,3.66,0,0,1,4.83-3.71l365.4,97.27a6.88,6.88,0,0,1,4.83,6.29Z" class="a"/><path d="M585,605.89a3.66,3.66,0,0,1-4.83,3.71l-365.4-97.27A6.88,6.88,0,0,1,210,506V144.51a3.66,3.66,0,0,1,4.83-3.71l365.4,97.27a6.88,6.88,0,0,1,4.83,6.29Z" class="b"/><text class="n" transform="matrix(1, 0.27, 0, 1, 243.44, 171.65)">Plot</text><g class="c"><path d="M234.06,152.09l-13.7-3.65a3.11,3.11,0,0,0-4.18,3.07v8.77a3.17,3.17,0,0,0,.69.85c.31,0,1.17-.71,2-2.61.91-2.09,2.51-4.45,4.89-3.82a5.74,5.74,0,0,1,3.14,2.7,18.93,18.93,0,0,1,1.75,3.72,9,9,0,0,0,2,3.68c.31,0,1.17-.71,2-2.61.91-2.09,2.51-4.46,4.89-3.82a3.6,3.6,0,0,1,.69.26v-1.24A5.85,5.85,0,0,0,234.06,152.09Z" class="d"/><path d="M237.55,161.47c-.31,0-1.17.71-2,2.61-.91,2.09-2.51,4.45-4.89,3.82a5.74,5.74,0,0,1-3.14-2.7,18.93,18.93,0,0,1-1.75-3.72,9,9,0,0,0-2-3.68c-.31,0-1.17.71-2,2.61-.91,2.09-2.51,4.46-4.89,3.82a3.6,3.6,0,0,1-.69-.26v1.24a5.85,5.85,0,0,0,4.18,5.29l13.7,3.65a3.11,3.11,0,0,0,4.18-3.07v-8.77A3.17,3.17,0,0,0,237.55,161.47Z" class="d"/></g></g><path d="M580.08,356a3.66,3.66,0,0,1-4.83,3.71L220.89,265.41a6.88,6.88,0,0,1-4.83-6.29V180.88a3.66,3.66,0,0,1,4.83-3.71L575.25,271.5a6.88,6.88,0,0,1,4.83,6.29Z" class="l"/><path d="M580.08,451a3.66,3.66,0,0,1-4.83,3.71L220.89,360.39a6.88,6.88,0,0,1-4.83-6.29V275.86a3.66,3.66,0,0,1,4.83-3.71l354.37,94.34a6.88,6.88,0,0,1,4.83,6.29Z" class="l"/><path d="M580.08,545.88a3.66,3.66,0,0,1-4.83,3.71L220.89,455.26a6.88,6.88,0,0,1-4.83-6.29V370.73a3.66,3.66,0,0,1,4.83-3.71l354.37,94.34a6.88,6.88,0,0,1,4.83,6.29Z" class="l"/><line x1="6.33" x2="77.26" y1="86.4" y2="45.45" class="h"/><line x1="6.11" x2="78.79" y1="172.56" y2="130.6" class="h"/><line x1="6.19" x2="77.48" y1="454.54" y2="413.39" class="h"/><line x1="209.99" x2="282.66" y1="511.05" y2="469.09" class="h"/><line x1="203.37" x2="276.04" y1="508.2" y2="466.25" class="h"/><line x1="584.06" x2="656.73" y1="609.92" y2="567.96" class="h"/><line x1="483" x2="578.08" y1="604.78" y2="549.88" class="h"/><line x1="485" x2="580.08" y1="327.43" y2="272.53" class="h"/><line x1="482.47" x2="577.55" y1="415.64" y2="360.75" class="h"/><line x1="485" x2="580.08" y1="422.66" y2="367.77" class="h"/><line x1="483" x2="578.08" y1="509.91" y2="455.02" class="h"/><line x1="485" x2="580.08" y1="517.53" y2="462.63" class="h"/><g class="m"><path d="M203.37,210a3.66,3.66,0,0,1-4.83,3.71L9.64,163.4a6.88,6.88,0,0,1-4.83-6.29V89.89a3.66,3.66,0,0,1,4.83-3.71l188.9,50.29a6.88,6.88,0,0,1,4.83,6.29Z" class="a"/><path d="M203.37,210a3.66,3.66,0,0,1-4.83,3.71L9.64,163.4a6.88,6.88,0,0,1-4.83-6.29V89.89a3.66,3.66,0,0,1,4.83-3.71l188.9,50.29a6.88,6.88,0,0,1,4.83,6.29Z" class="b"/><polygon points="184.11 196.32 44.52 159.16 44.52 136.18 184.11 173.34 184.11 196.32" class="g"/><text class="n" transform="matrix(1, 0.27, 0, 1, 38.26, 115.93)">Clock</text><path d="M21.94,94.68c-6.09-1.62-11,2-11,8.09s4.94,12.35,11,14,11-2,11-8.09S28,96.3,21.94,94.68Zm5.82,16.41a1.19,1.19,0,0,1-1.34.42,2,2,0,0,1-.78-.41l-4.78-4h0l-.05,0,0,0,0,0,0,0,0,0,0,0v0l0-.05h0a2.25,2.25,0,0,1-.28-.42l0,0,0,0a2,2,0,0,1-.15-.45h0v-.33h0V97.67a1.15,1.15,0,0,1,1.55-1.14,2.17,2.17,0,0,1,1.55,2v6.95l4,3.38A1.81,1.81,0,0,1,27.76,111.09Z" class="d"/></g><g class="m"><path d="M203.37,503.2a3.66,3.66,0,0,1-4.83,3.71L9.64,456.63a6.88,6.88,0,0,1-4.83-6.29V175.85a3.66,3.66,0,0,1,4.83-3.71l188.9,50.29a6.88,6.88,0,0,1,4.83,6.29Z" class="a"/><path d="M203.37,503.2a3.66,3.66,0,0,1-4.83,3.71L9.64,456.63a6.88,6.88,0,0,1-4.83-6.29V175.85a3.66,3.66,0,0,1,4.83-3.71l188.9,50.29a6.88,6.88,0,0,1,4.83,6.29Z" class="b"/><polygon points="184.11 282.28 44.52 245.12 44.52 222.14 184.11 259.3 184.11 282.28" class="g"/><polygon points="184.11 319.14 44.52 281.98 44.52 259 184.11 296.16 184.11 319.14" class="g"/><polygon points="184.11 356 44.52 318.84 44.52 295.86 184.11 333.02 184.11 356" class="g"/><polygon points="184.11 392.86 44.52 355.7 44.52 332.72 184.11 369.88 184.11 392.86" class="g"/><polygon points="184.11 429.72 44.52 392.56 44.52 369.58 184.11 406.74 184.11 429.72" class="g"/><polygon points="184.11 466.57 44.52 429.42 44.52 406.44 184.11 443.6 184.11 466.57" class="g"/><text class="n" transform="matrix(1, 0.27, 0, 1, 38.26, 201.89)"><tspan class="o">T</tspan><tspan x="7.15" y="0">able</tspan></text><path d="M29.65,183.42l-15.35-3.9a1.93,1.93,0,0,0-2.56,1.91v15.35A3.53,3.53,0,0,0,14.3,200l15.35,3.9A1.93,1.93,0,0,0,32.21,202V186.63A3.53,3.53,0,0,0,29.65,183.42ZM18.14,199.68l-3.84-1a1.72,1.72,0,0,1-.9-.61,1.62,1.62,0,0,1-.38-1v-2.56l5.12,1.3Zm0-5.12L13,193.27v-3.84l5.12,1.3Zm0-5.12L13,188.15v-3.84l5.12,1.3Zm6.4,11.86L19.42,200v-3.84l5.12,1.3Zm0-5.12-5.12-1.3v-3.84l5.12,1.3Zm0-5.12-5.12-1.3v-3.84l5.12,1.3Zm6.4,10.58a1,1,0,0,1-.38.81,1,1,0,0,1-.9.15l-3.84-1V197.8l5.12,1.3Zm0-3.84-5.12-1.3v-3.84l5.12,1.3Zm0-5.12-5.12-1.3v-3.84l5.12,1.3Z" class="d"/></g><line x1="122.45" x2="217.53" y1="233.48" y2="178.59" class="h"/><line x1="585.05" x2="656.42" y1="239.36" y2="199.71" class="h"/><line x1="211.99" x2="285.67" y1="141.51" y2="100.58" class="h"/><line x1="203.37" x2="275.23" y1="137.75" y2="97.83" class="h"/><line x1="122.45" x2="217.53" y1="328.46" y2="273.57" class="h"/><line x1="122.45" x2="217.53" y1="423.33" y2="368.44" class="h"/><line x1="122.26" x2="215.53" y1="508.29" y2="454.45" class="h"/><line x1="121.66" x2="215.53" y1="319.03" y2="264.84" class="h"/><line x1="122.01" x2="215.53" y1="413.81" y2="359.82" class="h"/><use width="331" height="81" transform="matrix(1.1, 0.29, 0, 1.1, 119.89, 230.79)" xlink:href="#b"/><use width="331" height="81" transform="matrix(1.1, 0.29, 0, 1.1, 119.89, 325.77)" xlink:href="#b"/><use width="331" height="81" transform="matrix(1.1, 0.29, 0, 1.1, 119.89, 420.63)" xlink:href="#b"/></svg>